<?xml version="1.0" encoding="UTF-8"?>
<svg width="397px" height="101px" viewBox="0 0 397 101" version="1.1" xmlns="http://www.w3.org/2000/svg" xmlns:xlink="http://www.w3.org/1999/xlink">
    <!-- Generator: Sketch 63.1 (92452) - https://sketch.com -->
    <title>Group</title>
    <desc>Created with Sketch.</desc>
    <g id="Page-4" stroke="none" stroke-width="1" fill="none" fill-rule="evenodd">
        <g id="Equitise_Styleguide_v3" transform="translate(-397.000000, -415.000000)">
            <g id="Group" transform="translate(397.090400, 415.275500)">
                <path d="M144.6769,45.9276 C144.0999,40.7296 140.5619,36.6866 134.8589,36.6866 C129.3729,36.6866 125.4749,39.8626 124.6809,45.9276 L144.6769,45.9276 Z M124.3919,52.2086 C124.9689,58.4166 129.1559,62.8916 135.2929,62.8916 C139.6239,62.8916 142.2949,61.0886 143.9559,58.1996 L152.8359,58.1996 C150.5249,65.1316 144.2439,70.1836 135.0759,70.1836 C123.2369,70.1836 115.5839,61.8106 115.5839,49.9696 C115.5839,38.4206 123.3809,29.8286 134.9319,29.8286 C146.9869,29.8286 153.4839,38.8536 153.4839,49.8986 C153.4839,51.2696 153.4129,52.0646 153.4129,52.2816 L124.3919,52.2086 Z" id="Fill-98" fill="#F6F7F4"></path>
                <path d="M166.8396,49.826 C166.8396,57.118 170.7376,62.675 177.3796,62.675 C183.7326,62.675 188.2806,57.407 188.2806,50.115 C188.2806,42.608 184.3096,37.121 177.3796,37.121 C170.7376,37.121 166.8396,42.608 166.8396,49.826 L166.8396,49.826 Z M196.6546,31.128 L196.6546,82.023 L187.8476,82.023 L187.8476,71.339 C187.8476,68.813 187.8476,66.575 187.9206,63.904 C185.8266,67.007 181.3506,69.896 175.5026,69.896 C164.6746,69.896 157.8156,61.449 157.8156,49.97 C157.8156,38.131 164.9626,29.901 175.3586,29.901 C181.9996,29.901 186.2586,32.934 188.3536,36.183 L188.3536,31.128 L196.6546,31.128 Z" id="Fill-100" fill="#F6F7F4"></path>
                <path d="M229.7182,66.3586 L229.7182,63.6146 C227.4792,67.5846 223.6532,70.0406 217.9502,70.0406 C209.3602,70.0406 204.2332,64.9866 204.2332,53.5076 L204.2332,31.1286 L213.0412,31.1286 L213.0412,51.3426 C213.0412,58.0566 214.7732,62.7486 220.8382,62.7486 C227.6952,62.7486 229.2122,56.9016 229.2122,50.9806 L229.2122,31.1286 L238.0192,31.1286 L238.0192,63.3256 C238.0192,65.2756 238.0192,67.2236 238.0922,69.0296 L229.7182,69.0296 L229.7182,66.3586 Z" id="Fill-102" fill="#F6F7F4"></path>
                <polygon id="Path" fill="#F6F7F4" points="247.4056 69.0285 256.2126 69.0285 256.2126 31.1275 247.4056 31.1275"></polygon>
                <polygon id="Path" fill="#F6F7F4" points="247.2596 25.6415 256.2836 25.6415 256.2836 17.4115 247.2596 17.4115"></polygon>
                <path d="M276.2084,31.1284 L283.2824,31.1284 L283.2824,37.6974 L276.2084,37.6974 L276.2084,58.4164 C276.2084,61.9554 277.8674,63.1084 280.7564,63.1084 C281.4774,63.1084 282.0564,63.0374 282.5614,62.9644 L282.5614,69.4624 C281.7674,69.6794 280.8294,69.7504 279.1674,69.7504 C272.0224,69.7504 267.4014,67.4404 267.4014,59.9334 L267.4014,37.6974 L261.6984,37.6974 L261.6984,31.1284 L267.4014,31.1284 L267.4014,20.8774 L276.2084,20.8774 L276.2084,31.1284 Z" id="Fill-106" fill="#F6F7F4"></path>
                <polygon id="Path" fill="#F6F7F4" points="289.4906 69.0285 298.2976 69.0285 298.2976 31.1275 289.4906 31.1275"></polygon>
                <polygon id="Path" fill="#F6F7F4" points="289.3456 25.6415 298.3696 25.6415 298.3696 17.4115 289.3456 17.4115"></polygon>
                <path d="M313.0248,57.0459 C314.1078,60.7999 316.9228,63.1089 321.2548,63.1089 C325.0078,63.1089 327.9678,61.3049 327.9678,58.4169 C327.9678,55.7459 325.0808,55.0239 321.2548,53.9399 L317.0668,52.7869 C310.9308,51.0539 306.0238,48.5979 306.0238,41.5969 C306.0238,34.6649 312.1578,29.9009 320.6048,29.9009 C328.6908,29.9009 334.9708,34.2329 335.5478,41.7409 L327.7518,41.7409 C326.6698,38.4919 324.2148,36.9049 320.3878,36.9049 C316.4168,36.9049 314.5418,38.7819 314.5418,41.0909 C314.5418,43.6169 316.5628,44.3389 320.3878,45.4219 L324.5748,46.5059 C332.3728,48.6709 336.1978,51.1979 336.1978,57.6949 C336.1978,65.2029 329.9168,70.1849 321.1098,70.1849 C311.6518,70.1849 306.1658,65.7799 304.7238,57.0459 L313.0248,57.0459 Z" id="Fill-109" fill="#F6F7F4"></path>
                <path d="M369.8392,45.9276 C369.2602,40.7296 365.7242,36.6866 360.0202,36.6866 C354.5342,36.6866 350.6352,39.8626 349.8422,45.9276 L369.8392,45.9276 Z M349.5522,52.2086 C350.1302,58.4166 354.3172,62.8916 360.4532,62.8916 C364.7852,62.8916 367.4562,61.0886 369.1162,58.1996 L377.9962,58.1996 C375.6862,65.1316 369.4062,70.1836 360.2372,70.1836 C348.3982,70.1836 340.7452,61.8106 340.7452,49.9696 C340.7452,38.4206 348.5422,29.8286 360.0932,29.8286 C372.1482,29.8286 378.6462,38.8536 378.6462,49.8986 C378.6462,51.2696 378.5732,52.0646 378.5732,52.2816 L349.5522,52.2086 Z" id="Fill-111" fill="#F6F7F4"></path>
                <path d="M389.4728,29.5975 L390.3068,29.5975 C391.1128,29.5975 391.5548,29.3635 391.5548,28.7385 C391.5548,28.1405 391.1128,27.9315 390.3068,27.9315 L389.4728,27.9315 L389.4728,29.5975 Z M387.9108,26.5525 L390.4098,26.5525 C391.1388,26.5525 391.7378,26.6305 392.2578,26.9445 C392.8318,27.3595 393.1178,27.9315 393.1178,28.6625 C393.1178,29.8845 392.4658,30.4835 391.6588,30.7705 C392.2578,31.6805 392.8318,32.6705 393.3778,33.5815 L391.5548,33.5815 L390.0198,30.9775 L389.4728,30.9775 L389.4728,33.5815 L387.9108,33.5815 L387.9108,26.5525 Z M390.3068,25.0685 C387.5718,25.0685 385.4368,27.2815 385.4368,30.0155 C385.4368,32.7485 387.5718,34.9605 390.2798,34.9605 C392.9598,34.9605 395.1728,32.7485 395.1728,30.0155 C395.1728,27.2815 392.9348,25.0685 390.3068,25.0685 L390.3068,25.0685 Z M390.2798,36.1055 C386.9488,36.1055 384.2148,33.3985 384.2148,30.0155 C384.2148,26.6575 386.8688,23.9235 390.3068,23.9235 C393.6388,23.9235 396.3708,26.6575 396.3708,30.0155 C396.3708,33.3985 393.6628,36.1055 390.2798,36.1055 L390.2798,36.1055 Z" id="Fill-113" fill="#F6F7F4"></path>
                <path d="M81.82,17.278 L56.786,2.831 C53.588,0.977 49.925,-2.84217094e-14 46.199,-2.84217094e-14 C42.473,-2.84217094e-14 38.818,0.977 35.621,2.831 L10.578,17.278 C4.048,21.049 -2.84217094e-14,28.071 -2.84217094e-14,35.612 L-2.84217094e-14,64.534 C-2.84217094e-14,72.058 4.048,79.08 10.578,82.85 L35.621,97.316 C38.818,99.17 42.482,100.146 46.199,100.146 C49.916,100.146 53.579,99.17 56.786,97.316 L81.82,82.85 C88.179,79.178 92.183,72.416 92.38,65.107 L92.407,65.107 L92.407,35.612 C92.407,28.071 88.349,21.049 81.82,17.278 L81.82,17.278 Z M83.81,62.986 L83.801,62.995 C83.774,68.447 80.832,73.521 76.119,76.228 L53.881,89.074 C51.551,90.415 48.889,91.125 46.199,91.125 C43.509,91.125 40.855,90.415 38.516,89.074 L16.279,76.228 C11.538,73.502 8.597,68.402 8.597,62.915 L8.597,37.241 C8.597,31.762 11.538,26.662 16.279,23.927 L38.516,11.09 C40.855,9.741 43.509,9.021 46.199,9.021 C48.889,9.021 51.551,9.741 53.881,11.09 L76.119,23.927 C80.859,26.662 83.81,31.762 83.81,37.241 L83.81,62.986 Z" id="Fill-115" fill="#6364FF"></path>
                <path d="M72.9443,45.9622 C71.5153,36.8872 65.3373,28.9522 56.9313,25.2642 C47.9473,21.3232 37.0873,22.7902 29.4103,28.8812 C21.9483,34.8012 18.1343,44.5712 19.4483,53.9882 C20.3203,60.2332 23.4983,66.0502 28.1833,70.2532 C32.3123,73.9572 37.5333,76.3292 43.0463,76.9612 C53.1473,78.1182 63.2553,73.3822 68.8283,64.8872 C69.1993,64.3222 69.5493,63.7442 69.8773,63.1532 L70.1553,62.6492 L59.8013,62.6492 L59.7023,62.6942 L59.5493,62.7572 C56.8053,65.6552 53.1073,67.6002 49.1783,68.2752 C46.0073,68.8192 42.6883,68.4672 39.6773,67.3462 C31.9393,64.4632 26.9983,56.3092 27.8803,48.1102 C28.8703,38.9052 36.8983,31.6322 46.2003,31.6322 C54.5703,31.6322 62.1703,37.6482 64.1243,45.7752 L42.6863,45.7752 C40.3123,45.7752 38.3883,47.6992 38.3883,50.0732 C38.3883,52.4472 40.3123,54.3712 42.6863,54.3712 L72.9163,54.3712 C72.9163,54.3712 72.9643,54.0542 72.9603,54.0492 C73.3623,51.3922 73.3693,48.6602 72.9443,45.9622" id="Fill-117" fill="#6364FF"></path>
            </g>
        </g>
    </g>
</svg>